<svg viewBox="0 0 143 25" x="0" y="0" fill="none" xmlns="http://www.w3.org/2000/svg"><path id="audiophile" fill-rule="evenodd" clip-rule="evenodd" d="M57.976,4.1088v-4.1088h-4.763v4.1088zM41.872,20.4c1.636,0 3.093,-0.557 4.235,-1.52l0.456,1.044h3.579v-19.1319h-4.781v5.591c-1.006,-0.6258 -2.192,-0.9759 -3.489,-0.9759c-4.309,0 -7.378,3.1205 -7.378,7.4888c0,4.3684 3.069,7.504 7.378,7.504zM7.363,20.385c1.631,0 3.087,-0.537 4.237,-1.47l0.414,0.994h3.739v-14.0559l-3.605,-0.0003l-0.495,1.0871c-1.159,-0.9577 -2.637,-1.5106 -4.29,-1.5106c-4.294,0 -7.363,3.0984 -7.363,7.4516c0,4.3684 3.069,7.5041 7.363,7.5041zM8.009,16.098c-1.811,0 -3.143,-1.3702 -3.143,-3.2059c0,-1.8244 1.321,-3.1946 3.143,-3.1946c1.812,0 3.144,1.3702 3.144,3.1946c0,1.8357 -1.332,3.2059 -3.144,3.2059zM32.454,13.8899c0,3.9331 -2.762,6.4951 -6.91,6.4951c-4.148,0 -6.926,-2.562 -6.926,-6.4951v-8.022h4.837v7.8114c0,1.4837 0.797,2.3562 2.089,2.3562c1.292,0 2.074,-0.8873 2.074,-2.3562v-7.8114h4.836zM39.376,12.8963c0,1.8354 1.331,3.2165 3.143,3.2165c1.812,0 3.143,-1.3811 3.143,-3.2165c0,-1.8356 -1.331,-3.2168 -3.143,-3.2168c-1.812,0 -3.143,1.3812 -3.143,3.2168zM58.013,5.8677v14.0563h-4.837v-14.0563zM68.11,20.385c4.563,0 7.872,-3.1466 7.872,-7.489c0,-4.3571 -3.309,-7.4885 -7.872,-7.4885c-4.579,0 -7.873,3.1314 -7.873,7.4885c0,4.3424 3.294,7.489 7.873,7.489zM65.081,12.8963c0,1.8583 1.265,3.1392 3.029,3.1395c1.763,0 3.028,-1.281 3.028,-3.1392c0,-1.8474 -1.265,-3.1395 -3.028,-3.1395c-1.764,0 -3.029,1.2809 -3.029,3.1392zM82.998,25v-5.534c0.991,0.599 2.153,0.934 3.423,0.934c4.293,0 7.362,-3.1247 7.362,-7.504c0,-4.3792 -3.069,-7.4888 -7.362,-7.4888c-1.669,0 -3.155,0.5779 -4.31,1.5774l-0.605,-1.1167h-3.29v19.1321zM82.631,12.8958c0,1.8466 1.331,3.2168 3.143,3.2168c1.8,0 3.143,-1.3702 3.143,-3.2168c0,-1.8466 -1.332,-3.2168 -3.143,-3.2168c-1.812,0 -3.143,1.3702 -3.143,3.2168zM100.839,19.924v-7.5059c0,-1.8038 0.912,-2.8435 2.376,-2.8435c1.262,0 1.831,0.8265 1.831,2.4476v7.9018h4.836v-8.4643c0,-3.6434 -2.071,-6.0075 -5.295,-6.0075c-1.399,0 -2.714,0.5071 -3.748,1.3406v-6.0007h-4.837v19.1319zM117.574,0v4.1088h-4.763v-4.1088zM117.611,5.8677h-4.837v14.0563h4.837zM125.489,0.7921v19.1319h-4.836v-19.1319zM135.34,20.385c3.523,0 6.364,-2.004 7.352,-5.2121h-4.813c-0.465,0.8228 -1.409,1.3182 -2.539,1.3182c-1.527,0 -2.55,-0.8338 -2.866,-2.4461h10.426c0.063,-0.4347 0.1,-0.8582 0.1,-1.2817c0,-4.1234 -3.134,-7.3558 -7.66,-7.3558c-4.407,0 -7.626,3.1686 -7.626,7.4779c0,4.2941 3.245,7.4996 7.626,7.4996zM132.559,11.3639h5.677c-0.425,-1.4048 -1.436,-2.1628 -2.896,-2.1628c-1.409,0 -2.389,0.7666 -2.781,2.1628z" fill="currentColor" xmlns="http://www.w3.org/2000/svg"/></svg>